<svg width="56" height="56" viewBox="0 0 56 56" fill="none" xmlns="http://www.w3.org/2000/svg">
<circle cx="28" cy="28" r="28" fill="white"/>
<path d="M24.0013 26.6667C25.4158 26.6667 26.7723 26.1048 27.7725 25.1046C28.7727 24.1044 29.3346 22.7478 29.3346 21.3333C29.3346 19.9188 28.7727 18.5623 27.7725 17.5621C26.7723 16.5619 25.4158 16 24.0013 16C22.5868 16 21.2303 16.5619 20.2301 17.5621C19.2299 18.5623 18.668 19.9188 18.668 21.3333C18.668 22.7478 19.2299 24.1044 20.2301 25.1046C21.2303 26.1048 22.5868 26.6667 24.0013 26.6667V26.6667Z" stroke="#311C1C" stroke-width="2" stroke-linecap="round" stroke-linejoin="round"/>
<path d="M19.9242 27.603C18.3482 28.3681 17.0194 29.5612 16.0896 31.046C15.1599 32.5308 14.6668 34.2473 14.6668 35.9992C14.6668 35.9992 14.3721 30.2985 19.9242 27.603ZM19.9242 27.603C21.5002 26.838 23.2597 26.5319 25.0015 26.7199C26.7432 26.9079 28.3969 27.5822 29.7734 28.6659C29.7734 28.6659 26 25 19.9242 27.603ZM34.6668 29.3326H37.3334M40.4854 34.2752L40.8801 36.9419C40.9362 37.3209 40.91 37.7076 40.8033 38.0756C40.6965 38.4436 40.5117 38.7842 40.2614 39.0744C40.0111 39.3645 39.7013 39.5973 39.3529 39.7569C39.0046 39.9165 38.6259 39.9991 38.2428 39.9992H33.7574C33.3743 39.9991 32.9956 39.9165 32.6473 39.7569C32.2989 39.5973 31.9891 39.3645 31.7388 39.0744C31.4885 38.7842 31.3037 38.4436 31.1969 38.0756C31.0902 37.7076 31.064 37.3209 31.1201 36.9419L31.5148 34.2752C31.6085 33.6427 31.9263 33.0648 32.4104 32.6471C32.8945 32.2293 33.5127 31.9994 34.1521 31.9992H37.8481C38.4876 31.9994 39.1057 32.2293 39.5898 32.6471C40.0739 33.0648 40.3918 33.6427 40.4854 34.2752Z" stroke="#311C1C" stroke-width="2" stroke-linecap="round" stroke-linejoin="round"/>
</svg>
