<svg width="56" height="56" viewBox="0 0 56 56" fill="none" xmlns="http://www.w3.org/2000/svg">
<circle cx="28" cy="28" r="28" fill="white"/>
<path d="M30.6671 18.6667C30.6671 17.9594 30.3861 17.2811 29.886 16.781C29.3859 16.281 28.7076 16 28.0004 16C27.2931 16 26.6149 16.281 26.1148 16.781C25.6147 17.2811 25.3337 17.9594 25.3337 18.6667M34.0004 40H36.8924C37.2768 39.9999 37.6566 39.9166 38.0058 39.756C38.355 39.5954 38.6653 39.3611 38.9156 39.0694C39.1658 38.7776 39.35 38.4352 39.4555 38.0656C39.5611 37.696 39.5855 37.3079 39.5271 36.928L37.6817 24.928C37.5849 24.2983 37.2658 23.7242 36.7823 23.3094C36.2988 22.8946 35.6828 22.6666 35.0457 22.6667H20.9551C20.318 22.6666 19.702 22.8946 19.2185 23.3094C18.7349 23.7242 18.4159 24.2983 18.3191 24.928L16.4724 36.928C16.4139 37.308 16.4384 37.6962 16.544 38.0659C16.6496 38.4356 16.8339 38.7781 17.0843 39.0699C17.3347 39.3617 17.6452 39.5959 17.9946 39.7564C18.3439 39.9169 18.7239 40 19.1084 40H22.0004H34.0004ZM28.0004 37.3333V28V37.3333ZM28.0004 28L32.0004 32L28.0004 28ZM28.0004 28L24.0004 32L28.0004 28Z" stroke="#311C1C" stroke-width="2" stroke-linecap="round" stroke-linejoin="round"/>
</svg>
