<svg width="32" height="32" viewBox="0 0 32 32" fill="none" xmlns="http://www.w3.org/2000/svg">
<g filter="url(#filter0_b_128_16818)">
<rect width="32" height="32" rx="16" fill="#EDE8E7"/>
<g clip-path="url(#clip0_128_16818)">
<path d="M19.6689 8H12.331C9.94287 8 8 9.94287 8 12.331V19.669C8 22.0571 9.94287 24 12.331 24H19.669C22.0571 24 24 22.0571 24 19.669V12.331C24 9.94287 22.0571 8 19.6689 8V8ZM23.062 19.669C23.062 21.5399 21.5399 23.062 19.6689 23.062H12.331C10.4601 23.062 8.93799 21.5399 8.93799 19.669V12.331C8.93799 10.4601 10.4601 8.93799 12.331 8.93799H19.669C21.5399 8.93799 23.062 10.4601 23.062 12.331V19.669Z" fill="#311C1C"/>
<path d="M15.9999 11.625C13.5875 11.625 11.625 13.5875 11.625 15.9999C11.625 18.4122 13.5875 20.3747 15.9999 20.3747C18.4122 20.3747 20.3747 18.4122 20.3747 15.9999C20.3747 13.5875 18.4122 11.625 15.9999 11.625ZM15.9999 19.4368C14.1049 19.4368 12.563 17.895 12.563 15.9999C12.563 14.1049 14.1049 12.563 15.9999 12.563C17.895 12.563 19.4368 14.1049 19.4368 15.9999C19.4368 17.895 17.895 19.4368 15.9999 19.4368Z" fill="#311C1C"/>
<path d="M20.4802 10.0713C19.7673 10.0713 19.1875 10.6512 19.1875 11.364C19.1875 12.0769 19.7673 12.6569 20.4802 12.6569C21.1931 12.6569 21.7731 12.0769 21.7731 11.364C21.7731 10.6511 21.1931 10.0713 20.4802 10.0713ZM20.4802 11.7187C20.2847 11.7187 20.1255 11.5596 20.1255 11.364C20.1255 11.1683 20.2847 11.0093 20.4802 11.0093C20.6759 11.0093 20.8351 11.1683 20.8351 11.364C20.8351 11.5596 20.6759 11.7187 20.4802 11.7187Z" fill="#311C1C"/>
</g>
<rect x="0.5" y="0.5" width="31" height="31" rx="15.5" stroke="#311C1C"/>
</g>
<defs>
<filter id="filter0_b_128_16818" x="-50" y="-50" width="132" height="132" filterUnits="userSpaceOnUse" color-interpolation-filters="sRGB">
<feFlood flood-opacity="0" result="BackgroundImageFix"/>
<feGaussianBlur in="BackgroundImageFix" stdDeviation="25"/>
<feComposite in2="SourceAlpha" operator="in" result="effect1_backgroundBlur_128_16818"/>
<feBlend mode="normal" in="SourceGraphic" in2="effect1_backgroundBlur_128_16818" result="shape"/>
</filter>
<clipPath id="clip0_128_16818">
<rect width="16" height="16" fill="white" transform="translate(8 8)"/>
</clipPath>
</defs>
</svg>
