<svg width="32" height="32" viewBox="0 0 32 32" fill="none" xmlns="http://www.w3.org/2000/svg">
<g filter="url(#filter0_b_128_16815)">
<rect width="32" height="32" rx="16" fill="#EDE8E7"/>
<g clip-path="url(#clip0_128_16815)">
<path d="M17.0813 23.9688H14.514C14.0852 23.9688 13.7364 23.6206 13.7364 23.1926V17.4133H12.2386C11.8098 17.4133 11.4609 17.0651 11.4609 16.6372V14.1608C11.4609 13.7328 11.8098 13.3846 12.2386 13.3846H13.7364V12.1445C13.7364 10.9149 14.1232 9.86877 14.855 9.11938C15.5901 8.36658 16.6174 7.96875 17.8258 7.96875L19.7837 7.97192C20.2118 7.97266 20.56 8.3208 20.56 8.74805V11.0474C20.56 11.4753 20.2113 11.8235 19.7826 11.8235L18.4644 11.824C18.0623 11.824 17.96 11.9044 17.9381 11.9291C17.902 11.97 17.8591 12.0856 17.8591 12.4048V13.3845H19.6835C19.8209 13.3845 19.954 13.4183 20.0683 13.4821C20.315 13.6196 20.4684 13.8798 20.4684 14.1609L20.4674 16.6373C20.4674 17.0651 20.1186 17.4132 19.6898 17.4132H17.8591V23.1926C17.8591 23.6206 17.5101 23.9688 17.0813 23.9688ZM14.6762 23.0308H16.9191V16.9934C16.9191 16.7076 17.1521 16.4752 17.4383 16.4752H19.5276L19.5285 14.3226H17.4382C17.152 14.3226 16.9191 14.0902 16.9191 13.8044V12.4048C16.9191 12.0383 16.9564 11.6216 17.2336 11.3084C17.5684 10.9297 18.0962 10.886 18.4641 10.886L19.6202 10.8855V8.90967L17.8251 8.90674C15.883 8.90674 14.6762 10.1475 14.6762 12.1445V13.8044C14.6762 14.0901 14.4433 14.3226 14.1571 14.3226H12.4008V16.4752H14.1571C14.4433 16.4752 14.6762 16.7076 14.6762 16.9934V23.0308ZM19.7819 8.90991H19.782H19.7819Z" fill="#311C1C"/>
</g>
<rect x="0.5" y="0.5" width="31" height="31" rx="15.5" stroke="#311C1C"/>
</g>
<defs>
<filter id="filter0_b_128_16815" x="-50" y="-50" width="132" height="132" filterUnits="userSpaceOnUse" color-interpolation-filters="sRGB">
<feFlood flood-opacity="0" result="BackgroundImageFix"/>
<feGaussianBlur in="BackgroundImageFix" stdDeviation="25"/>
<feComposite in2="SourceAlpha" operator="in" result="effect1_backgroundBlur_128_16815"/>
<feBlend mode="normal" in="SourceGraphic" in2="effect1_backgroundBlur_128_16815" result="shape"/>
</filter>
<clipPath id="clip0_128_16815">
<rect width="16" height="16" fill="white" transform="translate(8 8)"/>
</clipPath>
</defs>
</svg>
