<svg width="32" height="32" viewBox="0 0 32 32" fill="none" xmlns="http://www.w3.org/2000/svg">
<g filter="url(#filter0_b_128_16823)">
<rect width="32" height="32" rx="16" fill="#EDE8E7"/>
<g clip-path="url(#clip0_128_16823)">
<path d="M12.1362 12.7383H9.43896C9.1366 12.7383 8.89062 12.9843 8.89062 13.2866V23.4518C8.89062 23.754 9.1366 24 9.43896 24H12.1362C12.4385 24 12.6844 23.754 12.6844 23.4518V13.2866C12.6844 12.9843 12.4385 12.7383 12.1362 12.7383ZM11.7456 23.0611H9.82947V13.6771H11.7456V23.0611Z" fill="#311C1C"/>
<path d="M10.7876 8C9.73291 8 8.875 8.85791 8.875 9.91247C8.875 10.9672 9.73291 11.8251 10.7876 11.8251C11.842 11.8251 12.7001 10.9672 12.7001 9.91247C12.7001 8.85791 11.8422 8 10.7876 8ZM10.7876 10.8862C10.2506 10.8862 9.81384 10.4495 9.81384 9.91247C9.81384 9.37561 10.2506 8.93884 10.7876 8.93884C11.3245 8.93884 11.7612 9.37561 11.7612 9.91247C11.7612 10.4493 11.3245 10.8862 10.7876 10.8862Z" fill="#311C1C"/>
<path d="M21.408 13.9299C20.7632 13.3917 19.9435 13.1039 19.1007 13.1195C18.5773 13.1291 18.0658 13.2554 17.6023 13.4839V13.262C17.6023 12.9728 17.3678 12.7383 17.0786 12.7383H14.3323C14.0431 12.7383 13.8086 12.9728 13.8086 13.262V23.4762C13.8086 23.7655 14.0431 23.9999 14.3323 23.9999H17.1328C17.3921 23.9999 17.6023 23.7897 17.6023 23.5305V17.4405C17.6023 16.9192 18.0103 16.478 18.5312 16.4625C19.0728 16.4465 19.5183 16.8822 19.5183 17.4202V23.5403C19.5183 23.794 19.7241 23.9999 19.9779 23.9999H22.6694C22.9232 23.9999 23.129 23.794 23.129 23.5403V17.6063C23.129 16.183 22.5017 14.8429 21.408 13.9299ZM22.1902 23.061H20.4573V17.4202C20.4573 16.3743 19.6063 15.5233 18.5603 15.5233C17.5144 15.5233 16.6635 16.3743 16.6635 17.4202V23.061H14.7474V13.677H16.6635V14.3592H16.6641C16.6639 14.4698 16.7024 14.5809 16.7815 14.6704C16.9532 14.8645 17.25 14.8826 17.4441 14.7107C17.9066 14.3013 18.5011 14.0696 19.118 14.0581C19.7356 14.0464 20.335 14.2571 20.8064 14.6506C21.6859 15.3848 22.1902 16.462 22.1902 17.6063V23.061Z" fill="#311C1C"/>
</g>
<rect x="0.5" y="0.5" width="31" height="31" rx="15.5" stroke="#311C1C"/>
</g>
<defs>
<filter id="filter0_b_128_16823" x="-50" y="-50" width="132" height="132" filterUnits="userSpaceOnUse" color-interpolation-filters="sRGB">
<feFlood flood-opacity="0" result="BackgroundImageFix"/>
<feGaussianBlur in="BackgroundImageFix" stdDeviation="25"/>
<feComposite in2="SourceAlpha" operator="in" result="effect1_backgroundBlur_128_16823"/>
<feBlend mode="normal" in="SourceGraphic" in2="effect1_backgroundBlur_128_16823" result="shape"/>
</filter>
<clipPath id="clip0_128_16823">
<rect width="16" height="16" fill="white" transform="translate(8 8)"/>
</clipPath>
</defs>
</svg>
