<svg width="22" height="24" viewBox="0 0 22 24" fill="none" xmlns="http://www.w3.org/2000/svg">
<path id="Vector" d="M1.66797 22.6673V21.334C1.66797 18.8586 2.6513 16.4847 4.40164 14.7343C6.15198 12.984 8.52595 12.0007 11.0013 12.0007V12.0007C13.4767 12.0007 15.8506 12.984 17.601 14.7343C19.3513 16.4847 20.3346 18.8586 20.3346 21.334V22.6673H1.66797ZM11.0013 12.0007C12.4158 12.0007 13.7723 11.4387 14.7725 10.4386C15.7727 9.43836 16.3346 8.08181 16.3346 6.66732C16.3346 5.25283 15.7727 3.89628 14.7725 2.89608C13.7723 1.89589 12.4158 1.33398 11.0013 1.33398C9.58681 1.33398 8.23026 1.89589 7.23007 2.89608C6.22987 3.89628 5.66797 5.25283 5.66797 6.66732C5.66797 8.08181 6.22987 9.43836 7.23007 10.4386C8.23026 11.4387 9.58681 12.0007 11.0013 12.0007V12.0007Z" stroke="#311C1C" stroke-width="2" stroke-linecap="round" stroke-linejoin="round"/>
</svg>
