<svg width="22" height="22" viewBox="0 0 22 22" fill="none" xmlns="http://www.w3.org/2000/svg">
<path id="Vector" d="M15.668 15.666L20.3346 20.3327L15.668 15.666ZM1.66797 9.66602C1.66797 10.7166 1.87489 11.7569 2.27693 12.7275C2.67897 13.6981 3.26825 14.58 4.01111 15.3229C4.75398 16.0657 5.6359 16.655 6.6065 17.0571C7.57711 17.4591 8.61739 17.666 9.66797 17.666C10.7185 17.666 11.7588 17.4591 12.7294 17.0571C13.7 16.655 14.582 16.0657 15.3248 15.3229C16.0677 14.58 16.657 13.6981 17.059 12.7275C17.461 11.7569 17.668 10.7166 17.668 9.66602C17.668 7.54428 16.8251 5.50945 15.3248 4.00916C13.8245 2.50887 11.7897 1.66602 9.66797 1.66602C7.54624 1.66602 5.51141 2.50887 4.01111 4.00916C2.51082 5.50945 1.66797 7.54428 1.66797 9.66602V9.66602Z" stroke="#311C1C" stroke-width="2" stroke-linecap="round" stroke-linejoin="round"/>
</svg>
