<svg width="48" height="48" viewBox="0 0 48 48" fill="none" xmlns="http://www.w3.org/2000/svg">
<g filter="url(#filter0_b_120_16303)">
<rect width="48" height="48" rx="24" fill="white"/>
<g clip-path="url(#clip0_120_16303)">
<path d="M25.6219 35.9531H21.771C21.1278 35.9531 20.6046 35.4309 20.6046 34.7889V26.12H18.3579C17.7146 26.12 17.1914 25.5976 17.1914 24.9558V21.2412C17.1914 20.5992 17.7146 20.077 18.3579 20.077H20.6046V18.2168C20.6046 16.3724 21.1849 14.8032 22.2825 13.6791C23.3851 12.5499 24.9261 11.9531 26.7387 11.9531L29.6756 11.9579C30.3177 11.959 30.84 12.4812 30.84 13.1221V16.571C30.84 17.213 30.317 17.7352 29.6739 17.7352L27.6965 17.736C27.0935 17.736 26.9399 17.8566 26.9071 17.8936C26.853 17.955 26.7886 18.1284 26.7886 18.6072V20.0768H29.5253C29.7313 20.0768 29.931 20.1275 30.1025 20.2231C30.4725 20.4294 30.7026 20.8196 30.7026 21.2413L30.7011 24.956C30.7011 25.5976 30.1779 26.1198 29.5347 26.1198H26.7886V34.7889C26.7886 35.4309 26.2652 35.9531 25.6219 35.9531V35.9531ZM22.0143 34.5461H25.3787V25.4901C25.3787 25.0615 25.7282 24.7128 26.1575 24.7128H29.2914L29.2927 21.4839H26.1573C25.728 21.4839 25.3787 21.1353 25.3787 20.7067V18.6072C25.3787 18.0575 25.4346 17.4324 25.8503 16.9625C26.3527 16.3945 27.1443 16.329 27.6962 16.329L29.4303 16.3282V13.3645L26.7376 13.3601C23.8245 13.3601 22.0143 15.2212 22.0143 18.2168V20.7067C22.0143 21.1351 21.665 21.4839 21.2357 21.4839H18.6011V24.7128H21.2357C21.665 24.7128 22.0143 25.0615 22.0143 25.4901V34.5461ZM29.6728 13.3649H29.673H29.6728Z" fill="#311C1C"/>
</g>
<rect x="0.5" y="0.5" width="47" height="47" rx="23.5" stroke="#B5ABAA"/>
</g>
<defs>
<filter id="filter0_b_120_16303" x="-50" y="-50" width="148" height="148" filterUnits="userSpaceOnUse" color-interpolation-filters="sRGB">
<feFlood flood-opacity="0" result="BackgroundImageFix"/>
<feGaussianBlur in="BackgroundImageFix" stdDeviation="25"/>
<feComposite in2="SourceAlpha" operator="in" result="effect1_backgroundBlur_120_16303"/>
<feBlend mode="normal" in="SourceGraphic" in2="effect1_backgroundBlur_120_16303" result="shape"/>
</filter>
<clipPath id="clip0_120_16303">
<rect width="24" height="24" fill="white" transform="translate(12 12)"/>
</clipPath>
</defs>
</svg>
