<svg width="48" height="48" viewBox="0 0 48 48" fill="none" xmlns="http://www.w3.org/2000/svg">
<g filter="url(#filter0_b_120_16311)">
<rect width="48" height="48" rx="24" fill="#FAFAFA"/>
<path d="M18.2043 19.1074H14.1584C13.7049 19.1074 13.3359 19.4764 13.3359 19.9299V35.1776C13.3359 35.631 13.7049 36 14.1584 36H18.2043C18.6577 36 19.0267 35.631 19.0267 35.1776V19.9299C19.0267 19.4764 18.6577 19.1074 18.2043 19.1074V19.1074ZM17.6184 34.5917H14.7442V20.5157H17.6184V34.5917Z" fill="#311C1C"/>
<path d="M16.1814 12C14.5994 12 13.3125 13.2869 13.3125 14.8687C13.3125 16.4507 14.5994 17.7376 16.1814 17.7376C17.7631 17.7376 19.0501 16.4507 19.0501 14.8687C19.0501 13.2869 17.7632 12 16.1814 12ZM16.1814 16.3293C15.3759 16.3293 14.7208 15.6742 14.7208 14.8687C14.7208 14.0634 15.3759 13.4083 16.1814 13.4083C16.9867 13.4083 17.6418 14.0634 17.6418 14.8687C17.6418 15.674 16.9867 16.3293 16.1814 16.3293Z" fill="#311C1C"/>
<path d="M32.11 20.8949C31.1428 20.0876 29.9133 19.6558 28.6491 19.6793C27.864 19.6937 27.0967 19.8831 26.4015 20.2258V19.8929C26.4015 19.4592 26.0497 19.1074 25.616 19.1074H21.4965C21.0627 19.1074 20.7109 19.4592 20.7109 19.8929V35.2143C20.7109 35.6482 21.0627 35.9998 21.4965 35.9998H25.6973C26.0862 35.9998 26.4015 35.6845 26.4015 35.2957V26.1608C26.4015 25.3788 27.0134 24.717 27.7949 24.6938C28.6072 24.6698 29.2755 25.3233 29.2755 26.1302V35.3104C29.2755 35.6911 29.5842 35.9998 29.9649 35.9998H34.0022C34.3829 35.9998 34.6916 35.6911 34.6916 35.3104V26.4095C34.6916 24.2745 33.7506 22.2643 32.11 20.8949V20.8949ZM33.2833 34.5915H30.684V26.1302C30.684 24.5614 29.4075 23.285 27.8385 23.285C26.2697 23.285 24.9932 24.5614 24.9932 26.1302V34.5915H22.1192V20.5155H24.9932V21.5389H24.9941C24.994 21.7048 25.0516 21.8714 25.1703 22.0056C25.4279 22.2967 25.873 22.3238 26.1642 22.066C26.858 21.4519 27.7497 21.1044 28.6751 21.0872C29.6014 21.0696 30.5005 21.3856 31.2076 21.9759C32.5269 23.0771 33.2833 24.693 33.2833 26.4095V34.5915Z" fill="#311C1C"/>
<rect x="0.5" y="0.5" width="47" height="47" rx="23.5" stroke="#B5ABAA"/>
</g>
<defs>
<filter id="filter0_b_120_16311" x="-50" y="-50" width="148" height="148" filterUnits="userSpaceOnUse" color-interpolation-filters="sRGB">
<feFlood flood-opacity="0" result="BackgroundImageFix"/>
<feGaussianBlur in="BackgroundImageFix" stdDeviation="25"/>
<feComposite in2="SourceAlpha" operator="in" result="effect1_backgroundBlur_120_16311"/>
<feBlend mode="normal" in="SourceGraphic" in2="effect1_backgroundBlur_120_16311" result="shape"/>
</filter>
</defs>
</svg>
