<svg width="48" height="184" viewBox="0 0 48 184" fill="none" xmlns="http://www.w3.org/2000/svg">
<g filter="url(#filter0_b_463_1288)">
<g filter="url(#filter1_b_463_1288)">
<rect width="48" height="48" rx="24" fill="white"/>
<g clip-path="url(#clip0_463_1288)">
<path d="M25.6219 35.9531H21.771C21.1278 35.9531 20.6046 35.4309 20.6046 34.7889V26.12H18.3579C17.7146 26.12 17.1914 25.5976 17.1914 24.9558V21.2412C17.1914 20.5992 17.7146 20.077 18.3579 20.077H20.6046V18.2168C20.6046 16.3724 21.1849 14.8032 22.2825 13.6791C23.3851 12.5499 24.9261 11.9531 26.7387 11.9531L29.6756 11.9579C30.3177 11.959 30.84 12.4812 30.84 13.1221V16.571C30.84 17.213 30.317 17.7352 29.6739 17.7352L27.6965 17.736C27.0935 17.736 26.9399 17.8566 26.9071 17.8936C26.853 17.955 26.7886 18.1284 26.7886 18.6072V20.0768H29.5253C29.7313 20.0768 29.931 20.1275 30.1025 20.2231C30.4725 20.4294 30.7026 20.8196 30.7026 21.2413L30.7011 24.956C30.7011 25.5976 30.1779 26.1198 29.5347 26.1198H26.7886V34.7889C26.7886 35.4309 26.2652 35.9531 25.6219 35.9531ZM22.0143 34.5461H25.3787V25.4901C25.3787 25.0615 25.7282 24.7128 26.1575 24.7128H29.2914L29.2927 21.4839H26.1573C25.728 21.4839 25.3787 21.1353 25.3787 20.7067V18.6072C25.3787 18.0575 25.4346 17.4324 25.8503 16.9625C26.3527 16.3945 27.1443 16.329 27.6962 16.329L29.4303 16.3282V13.3645L26.7376 13.3601C23.8245 13.3601 22.0143 15.2212 22.0143 18.2168V20.7067C22.0143 21.1351 21.665 21.4839 21.2357 21.4839H18.6011V24.7128H21.2357C21.665 24.7128 22.0143 25.0615 22.0143 25.4901V34.5461ZM29.6728 13.3649H29.673H29.6728Z" fill="#311C1C"/>
</g>
<rect x="0.5" y="0.5" width="47" height="47" rx="23.5" stroke="#B5ABAA"/>
</g>
<g filter="url(#filter2_b_463_1288)">
<rect y="68" width="48" height="48" rx="24" fill="#FAFAFA"/>
<g clip-path="url(#clip1_463_1288)">
<path d="M29.5034 80H18.4966C14.9143 80 12 82.9143 12 86.4966V97.5036C12 101.086 14.9143 104 18.4966 104H29.5036C33.0857 104 36 101.086 36 97.5036V86.4966C36 82.9143 33.0857 80 29.5034 80V80ZM34.593 97.5036C34.593 100.31 32.3098 102.593 29.5034 102.593H18.4966C15.6901 102.593 13.407 100.31 13.407 97.5036V86.4966C13.407 83.6901 15.6901 81.407 18.4966 81.407H29.5036C32.3098 81.407 34.593 83.6901 34.593 86.4966V97.5036Z" fill="#311C1C"/>
<path d="M23.9998 85.4375C20.3813 85.4375 17.4375 88.3813 17.4375 91.9998C17.4375 95.6183 20.3813 98.5621 23.9998 98.5621C27.6183 98.5621 30.5621 95.6183 30.5621 91.9998C30.5621 88.3813 27.6183 85.4375 23.9998 85.4375ZM23.9998 97.1551C21.1573 97.1551 18.8445 94.8425 18.8445 91.9998C18.8445 89.1573 21.1573 86.8445 23.9998 86.8445C26.8425 86.8445 29.1551 89.1573 29.1551 91.9998C29.1551 94.8425 26.8425 97.1551 23.9998 97.1551Z" fill="#311C1C"/>
<path d="M30.7203 83.1074C29.651 83.1074 28.7812 83.9774 28.7812 85.0465C28.7812 86.1158 29.651 86.9858 30.7203 86.9858C31.7897 86.9858 32.6596 86.1158 32.6596 85.0465C32.6596 83.9772 31.7897 83.1074 30.7203 83.1074ZM30.7203 85.5786C30.427 85.5786 30.1882 85.3398 30.1882 85.0465C30.1882 84.753 30.427 84.5144 30.7203 84.5144C31.0138 84.5144 31.2526 84.753 31.2526 85.0465C31.2526 85.3398 31.0138 85.5786 30.7203 85.5786Z" fill="#311C1C"/>
</g>
<rect x="0.5" y="68.5" width="47" height="47" rx="23.5" stroke="#B5ABAA"/>
</g>
<g filter="url(#filter3_b_463_1288)">
<rect y="136" width="48" height="48" rx="24" fill="#FAFAFA"/>
<path d="M18.2043 155.107H14.1584C13.7049 155.107 13.3359 155.476 13.3359 155.93V171.178C13.3359 171.631 13.7049 172 14.1584 172H18.2043C18.6577 172 19.0267 171.631 19.0267 171.178V155.93C19.0267 155.476 18.6577 155.107 18.2043 155.107ZM17.6184 170.592H14.7442V156.516H17.6184V170.592Z" fill="#311C1C"/>
<path d="M16.1814 148C14.5994 148 13.3125 149.287 13.3125 150.869C13.3125 152.451 14.5994 153.738 16.1814 153.738C17.7631 153.738 19.0501 152.451 19.0501 150.869C19.0501 149.287 17.7632 148 16.1814 148ZM16.1814 152.329C15.3759 152.329 14.7208 151.674 14.7208 150.869C14.7208 150.063 15.3759 149.408 16.1814 149.408C16.9867 149.408 17.6418 150.063 17.6418 150.869C17.6418 151.674 16.9867 152.329 16.1814 152.329Z" fill="#311C1C"/>
<path d="M32.11 156.895C31.1428 156.088 29.9133 155.656 28.6491 155.679C27.864 155.694 27.0967 155.883 26.4015 156.226V155.893C26.4015 155.459 26.0497 155.107 25.616 155.107H21.4965C21.0627 155.107 20.7109 155.459 20.7109 155.893V171.214C20.7109 171.648 21.0627 172 21.4965 172H25.6973C26.0862 172 26.4015 171.684 26.4015 171.296V162.161C26.4015 161.379 27.0134 160.717 27.7949 160.694C28.6072 160.67 29.2755 161.323 29.2755 162.13V171.31C29.2755 171.691 29.5842 172 29.9649 172H34.0022C34.3829 172 34.6916 171.691 34.6916 171.31V162.409C34.6916 160.274 33.7506 158.264 32.11 156.895ZM33.2833 170.592H30.684V162.13C30.684 160.561 29.4075 159.285 27.8385 159.285C26.2697 159.285 24.9932 160.561 24.9932 162.13V170.592H22.1192V156.516H24.9932V157.539H24.9941C24.994 157.705 25.0516 157.871 25.1703 158.006C25.4279 158.297 25.873 158.324 26.1642 158.066C26.858 157.452 27.7497 157.104 28.6751 157.087C29.6014 157.07 30.5005 157.386 31.2076 157.976C32.5269 159.077 33.2833 160.693 33.2833 162.409V170.592Z" fill="#311C1C"/>
<rect x="0.5" y="136.5" width="47" height="47" rx="23.5" stroke="#B5ABAA"/>
</g>
</g>
<defs>
<filter id="filter0_b_463_1288" x="-4" y="-4" width="56" height="192" filterUnits="userSpaceOnUse" color-interpolation-filters="sRGB">
<feFlood flood-opacity="0" result="BackgroundImageFix"/>
<feGaussianBlur in="BackgroundImageFix" stdDeviation="2"/>
<feComposite in2="SourceAlpha" operator="in" result="effect1_backgroundBlur_463_1288"/>
<feBlend mode="normal" in="SourceGraphic" in2="effect1_backgroundBlur_463_1288" result="shape"/>
</filter>
<filter id="filter1_b_463_1288" x="-50" y="-50" width="148" height="148" filterUnits="userSpaceOnUse" color-interpolation-filters="sRGB">
<feFlood flood-opacity="0" result="BackgroundImageFix"/>
<feGaussianBlur in="BackgroundImageFix" stdDeviation="25"/>
<feComposite in2="SourceAlpha" operator="in" result="effect1_backgroundBlur_463_1288"/>
<feBlend mode="normal" in="SourceGraphic" in2="effect1_backgroundBlur_463_1288" result="shape"/>
</filter>
<filter id="filter2_b_463_1288" x="-50" y="18" width="148" height="148" filterUnits="userSpaceOnUse" color-interpolation-filters="sRGB">
<feFlood flood-opacity="0" result="BackgroundImageFix"/>
<feGaussianBlur in="BackgroundImageFix" stdDeviation="25"/>
<feComposite in2="SourceAlpha" operator="in" result="effect1_backgroundBlur_463_1288"/>
<feBlend mode="normal" in="SourceGraphic" in2="effect1_backgroundBlur_463_1288" result="shape"/>
</filter>
<filter id="filter3_b_463_1288" x="-50" y="86" width="148" height="148" filterUnits="userSpaceOnUse" color-interpolation-filters="sRGB">
<feFlood flood-opacity="0" result="BackgroundImageFix"/>
<feGaussianBlur in="BackgroundImageFix" stdDeviation="25"/>
<feComposite in2="SourceAlpha" operator="in" result="effect1_backgroundBlur_463_1288"/>
<feBlend mode="normal" in="SourceGraphic" in2="effect1_backgroundBlur_463_1288" result="shape"/>
</filter>
<clipPath id="clip0_463_1288">
<rect width="24" height="24" fill="white" transform="translate(12 12)"/>
</clipPath>
<clipPath id="clip1_463_1288">
<rect width="24" height="24" fill="white" transform="translate(12 80)"/>
</clipPath>
</defs>
</svg>
