<svg width="48" height="48" viewBox="0 0 48 48" fill="none" xmlns="http://www.w3.org/2000/svg">
<g filter="url(#filter0_b_120_16306)">
<rect width="48" height="48" rx="24" fill="#FAFAFA"/>
<g clip-path="url(#clip0_120_16306)">
<path d="M29.5034 12H18.4966C14.9143 12 12 14.9143 12 18.4966V29.5036C12 33.0857 14.9143 36 18.4966 36H29.5036C33.0857 36 36 33.0857 36 29.5036V18.4966C36 14.9143 33.0857 12 29.5034 12V12ZM34.593 29.5036C34.593 32.3098 32.3098 34.593 29.5034 34.593H18.4966C15.6901 34.593 13.407 32.3098 13.407 29.5036V18.4966C13.407 15.6901 15.6901 13.407 18.4966 13.407H29.5036C32.3098 13.407 34.593 15.6901 34.593 18.4966V29.5036Z" fill="#311C1C"/>
<path d="M23.9998 17.4375C20.3813 17.4375 17.4375 20.3813 17.4375 23.9998C17.4375 27.6183 20.3813 30.5621 23.9998 30.5621C27.6183 30.5621 30.5621 27.6183 30.5621 23.9998C30.5621 20.3813 27.6183 17.4375 23.9998 17.4375V17.4375ZM23.9998 29.1551C21.1573 29.1551 18.8445 26.8425 18.8445 23.9998C18.8445 21.1573 21.1573 18.8445 23.9998 18.8445C26.8425 18.8445 29.1551 21.1573 29.1551 23.9998C29.1551 26.8425 26.8425 29.1551 23.9998 29.1551V29.1551Z" fill="#311C1C"/>
<path d="M30.7203 15.1074C29.651 15.1074 28.7812 15.9774 28.7812 17.0465C28.7812 18.1158 29.651 18.9858 30.7203 18.9858C31.7897 18.9858 32.6596 18.1158 32.6596 17.0465C32.6596 15.9772 31.7897 15.1074 30.7203 15.1074ZM30.7203 17.5786C30.427 17.5786 30.1882 17.3398 30.1882 17.0465C30.1882 16.753 30.427 16.5144 30.7203 16.5144C31.0138 16.5144 31.2526 16.753 31.2526 17.0465C31.2526 17.3398 31.0138 17.5786 30.7203 17.5786Z" fill="#311C1C"/>
</g>
<rect x="0.5" y="0.5" width="47" height="47" rx="23.5" stroke="#B5ABAA"/>
</g>
<defs>
<filter id="filter0_b_120_16306" x="-50" y="-50" width="148" height="148" filterUnits="userSpaceOnUse" color-interpolation-filters="sRGB">
<feFlood flood-opacity="0" result="BackgroundImageFix"/>
<feGaussianBlur in="BackgroundImageFix" stdDeviation="25"/>
<feComposite in2="SourceAlpha" operator="in" result="effect1_backgroundBlur_120_16306"/>
<feBlend mode="normal" in="SourceGraphic" in2="effect1_backgroundBlur_120_16306" result="shape"/>
</filter>
<clipPath id="clip0_120_16306">
<rect width="24" height="24" fill="white" transform="translate(12 12)"/>
</clipPath>
</defs>
</svg>
