<svg width="32" height="32" viewBox="0 0 32 32" fill="none" xmlns="http://www.w3.org/2000/svg">
<path d="M18.6684 6.66667C18.6684 5.95942 18.3874 5.28115 17.8873 4.78105C17.3872 4.28095 16.709 4 16.0017 4C15.2945 4 14.6162 4.28095 14.1161 4.78105C13.616 5.28115 13.3351 5.95942 13.3351 6.66667M25.6817 12.928L27.5284 24.928C27.5868 25.3078 27.5624 25.6957 27.457 26.0652C27.3515 26.4348 27.1674 26.7771 26.9173 27.0689C26.6672 27.3606 26.3571 27.5948 26.008 27.7556C25.659 27.9163 25.2793 27.9997 24.8951 28H7.10839C6.7239 28 6.34395 27.9169 5.99458 27.7564C5.64522 27.5959 5.3347 27.3617 5.08432 27.0699C4.83394 26.7781 4.64962 26.4356 4.544 26.0659C4.43838 25.6962 4.41395 25.308 4.47239 24.928L6.31906 12.928C6.41593 12.2981 6.73517 11.7238 7.21896 11.3089C7.70275 10.8941 8.31911 10.6663 8.95639 10.6667H23.0471C23.6841 10.6666 24.3001 10.8946 24.7837 11.3094C25.2672 11.7242 25.5862 12.2983 25.6831 12.928H25.6817Z" stroke="black" stroke-width="2" stroke-linecap="round" stroke-linejoin="round"/>
</svg>
