<svg width="56" height="56" viewBox="0 0 56 56" fill="none" xmlns="http://www.w3.org/2000/svg">
<circle cx="28" cy="28" r="28" fill="white"/>
<path d="M23.2319 23.1712L26.4799 16.63C26.5745 16.4407 26.7199 16.2815 26.8999 16.1702C27.0799 16.0589 27.2873 16 27.4989 16C27.7105 16 27.9179 16.0589 28.0979 16.1702C28.2778 16.2815 28.4233 16.4407 28.5178 16.63L31.7659 23.1712L39.0272 24.2264C39.2366 24.2554 39.4337 24.3428 39.5959 24.4785C39.7581 24.6141 39.8788 24.7927 39.9444 24.9937C40.01 25.1947 40.0177 25.4101 39.9667 25.6153C39.9157 25.8205 39.8081 26.0073 39.656 26.1542L34.4026 31.2427L35.6428 38.4314C35.8016 39.3541 34.8264 40.0567 33.9925 39.6217L27.4989 36.226L21.004 39.6217C20.1713 40.058 19.1961 39.3541 19.3549 38.4302L20.5951 31.2414L15.3417 26.153C15.1904 26.0059 15.0834 25.8194 15.0328 25.6145C14.9823 25.4097 14.9902 25.1948 15.0557 24.9942C15.1212 24.7937 15.2417 24.6155 15.4034 24.48C15.5651 24.3445 15.7616 24.2571 15.9706 24.2277L23.2319 23.1712Z" stroke="#311C1C" stroke-width="2" stroke-linecap="round" stroke-linejoin="round"/>
</svg>
