<svg width="19" height="20" viewBox="0 0 23 21" fill="#e36709" xmlns="http://www.w3.org/2000/svg">
<path id="Vector" d="M22 7.15517C22.0036 8.77088 21.3811 10.3252 20.2633 11.4917C17.7002 14.1493 15.2138 16.9203 12.5562 19.4802C11.9461 20.0577 10.9791 20.0367 10.3963 19.433L2.73646 11.4928C0.421181 9.09244 0.421181 5.2179 2.73646 2.81862C3.28366 2.24426 3.94181 1.78701 4.67099 1.47458C5.40017 1.16215 6.18521 1.00105 6.97851 1.00105C7.77181 1.00105 8.55684 1.16215 9.28603 1.47458C10.0152 1.78701 10.6734 2.24426 11.2206 2.81862L11.4999 3.10632L11.7781 2.81862C12.3264 2.24562 12.9848 1.7892 13.7137 1.47671C14.4426 1.16421 15.2271 1.00207 16.0202 1C17.6162 1 19.1419 1.65521 20.2622 2.81862C21.3805 3.98502 22.0033 5.53932 22 7.15517V7.15517Z" stroke="#e36709" stroke-width="2" stroke-linejoin="round"/>
</svg>
